Patient4_TMGait_0pt8_01_right_21_EMG.mot
version=1
nRows=16
nColumns=33
inDegrees=no
endheader
time	1LAddLong	2LGlutMax	3LGlutMed	4LIliopsoas	5LSemiMemb	6LBicFemLong	7LRecFem	8LVastMed	9LVastLat	10LGasMed	11LTibAnt	12lTibPost	13LPeroneusLong	14LSol	15LExtDigLong	16LFlexDigLong	17RAddLong	18RGlutMax	19RGlutMed	20RIliopsoas	21RSemiMemb	22RBicFemLong	23RRecFem	24RVastMed	25RVastLat	26RGasMed	27RTibAnt	28RTibPost	29RPeroneusLong	30RSol	31RExtDigLong	32RFlexDigLong
23.37	0.017548	0.11795	0.006409	0.012207	0.030365	0.015106	0.074768	0.004425	0.078125	0.027466	0.049744	0.006409	0.065155	-0.2948	-0.037231	-0.042877	0.15503	-0.010986	0.55161	0.037842	-0.050354	0.058441	0.13596	0.011292	0.017853	-0.007629	0.067749	-0.013123	-0.90042	-0.085297	-0.004883	-0.012207
23.371	-0.001526	0.06897	-0.019226	0.023041	0.011597	0.054474	0.15213	-0.004272	0.15152	0.06485	0.19394	-0.000458	0.020142	-0.24017	-0.002747	-0.052643	0.14526	0.007782	0.4454	-0.05127	-0.053253	0.057831	-0.24567	-0.029449	-0.030823	-0.00885	0.074615	-0.008087	-0.40497	-0.006866	-0.003357	-0.016022
23.372	0.025024	0.099792	-0.029907	0.006866	0.011139	0.013733	0.16968	-0.007324	0.076904	0.10071	0.023651	-0.001678	-0.041962	-0.15427	0.041504	-0.033264	0.15228	0.025787	0.40466	-0.084686	-0.064697	0.092468	-0.21805	-0.046082	-0.028534	-0.008545	0.002747	-0.010071	-0.036621	-0.00473	-0.001984	-0.009308
23.373	0.003357	0.086975	-0.056	-0.001984	0.003815	0.017853	0.20905	-0.009766	0.13397	0.10391	-0.007629	-0.001984	0.00351	-0.067444	-0.17181	-0.038147	0.14114	0.033112	0.38803	-0.065918	-0.076141	0.061493	-0.28732	-0.15167	-0.05249	-0.002899	-0.046539	-0.006409	0.43472	-0.097351	-0.001068	-0.003204
23.374	0.007172	0.057678	-0.059662	0.012512	0.013428	0.078125	0.20081	0.003815	0.14984	0.094604	-0.007935	-0.001373	-0.005951	-0.067444	0.1886	-0.036774	0.16159	0.004578	0.31311	-0.019684	-0.078735	0.068359	0.12619	-0.23483	-0.048523	0.010529	-0.059357	-0.002594	-0.12756	-0.17456	-0.007019	0.004883
23.375	0.009918	0.029755	-0.095673	0.015411	0.022125	0.073547	0.19775	0.003052	0.13351	0.073547	0.04837	-0.00351	-0.014038	-0.070648	-0.019989	-0.034485	0.10834	-0.002899	0.345	0.033875	-0.071411	0.074921	0.14374	-0.18646	-0.053406	0.008392	-0.041199	-0.004578	-0.40298	-0.11429	-0.000153	-0.013733
23.376	0.009918	0.064545	-0.1442	0.010681	0.024414	0.022125	0.23773	0.006256	0.090637	0.054626	-0.007935	0	0.046539	0.009918	0.12299	-0.036163	0.063934	-0.022583	0.38361	0.11383	-0.031128	0.095367	0.087433	-0.13748	-0.021515	0.000458	-0.010376	-0.001984	-0.24597	0.035858	-0.002441	-0.016632
23.377	-0.019226	0.06134	-0.14282	0.007935	0.019073	0.024414	0.21576	0.005798	0.1561	0.086823	0.010681	0.001373	0.072784	0.031891	-0.26276	-0.02594	0.008698	-0.022736	0.23972	0.17761	-0.035706	0.070038	-0.14618	-0.033264	-0.032959	-0.010986	0.052795	-0.007629	-0.63995	0.10132	-0.003967	-0.014648
23.378	-0.011139	0.089264	-0.035706	0.003815	0.015259	0.018311	0.18173	-0.00473	0.20676	0.10651	0.079651	0.000153	-0.014954	0.007935	-0.078583	-0.005951	-0.047455	-0.018921	0.36026	-0.021667	-0.039368	0.049896	-0.055084	0.077057	-0.011902	-0.00946	0.031586	-0.007629	-0.64667	0.097504	-0.002747	-0.025177
23.379	0.010071	0.071259	0.083313	0.012817	0.016632	0.020447	0.080566	-0.00351	0.052338	0.098267	0.067596	-0.000763	0.006104	-0.028839	-0.10315	-0.019073	-0.082855	0.013428	0.31174	-0.11826	0.039978	0.062256	0.17044	0.26977	0.00473	-0.016022	0.091248	-0.000458	-0.33981	0.10559	0.001373	-0.030365
23.38	0.006409	0.009003	0.019073	0.007324	0.012665	0.031586	0.048981	-0.000916	-0.046539	0.001526	0.041656	0.003967	0.02655	0.005493	-0.13931	-0.028076	-0.12848	-0.019073	0.18631	-0.10315	0.06073	0.053864	0.11475	0.34698	0.018616	-0.00824	0.096741	-0.005798	0.51453	0.046692	0	-0.039673
23.381	-0.000153	0.018463	0.00473	0.002136	0.012054	0.035858	0.15243	-0.002594	0.017395	-0.041199	0.056915	0.001373	-0.007629	0.063934	-0.1088	-0.007172	-0.17929	-0.089264	0.30701	0.037537	0.087585	0.048828	0.042114	0.30716	0.049438	-0.008545	-0.030212	-0.001831	-0.040283	0.051422	-0.001373	-0.028076
23.382	-0.003052	0.005493	0.024261	0.011292	0.009155	0.028839	0.19318	0	0.088806	0.008392	0.064087	-0.006714	-0.014954	0.035553	-0.027161	-0.13046	-0.18982	-0.051422	0.11673	0.1918	0.13763	0.076141	0.25848	0.28183	0.09903	0.000916	0.062256	-0.000763	-0.52933	-0.017242	-0.002899	-0.029755
23.383	-0.015717	0.003662	0.074005	0.016174	0.012054	0.007935	0.17685	0.00473	0.10071	0.026703	0.046844	0.010223	-0.007935	-0.015411	0.062561	0.047302	-0.14755	-0.06134	0.13596	0.19714	0.18997	0.07431	0.29785	0.27802	0.09903	-0.000458	-0.070343	-0.005951	-0.68466	-0.092926	-0.000916	-0.028534
23.384	0.000305	0.011902	-0.003357	-0.009918	0.006256	0.013428	0.19684	0.008698	0.080261	0.009155	0.007172	0.007782	-0.011292	-0.030365	0.12299	-0.083923	-0.1297	-0.057068	0.37857	0.006104	0.21027	0.073395	0.39536	0.289	0.053101	0.001373	-0.036163	0.001526	0.22003	-0.1152	-0.002747	-0.028381
23.385	0.009308	0.038147	-0.003967	-0.004883	0.01709	0	0.18631	0.007629	0.09552	-0.013428	0.00473	0.003052	-0.013733	0.027161	0.12344	-0.1387	-0.12024	-0.060577	0.55191	-0.13519	0.159	0.07309	0.22369	0.2124	0.043488	0.014496	0.25116	-0.000763	0.61859	-0.091248	-0.001984	-0.024261
